<?xml version="1.0" encoding="utf-8"?>
<!DOCTYPE svg PUBLIC "-//W3C//DTD SVG 1.1//EN" "http://www.w3.org/Graphics/SVG/1.1/DTD/svg11.dtd">
<svg version="1.1" xmlns="http://www.w3.org/2000/svg" xmlns:xlink="http://www.w3.org/1999/xlink" x="0px" y="0px" viewBox="0 0 256 256" enable-background="new 0 0 256 256" xml:space="preserve">
<g><g><g><path fill="#51646e" d="M197.8,10.6c-6.3,1.6-1.6-3-86.9,82.3l-79.2,79.2L20.7,205c-9.3,27.9-10.9,33.2-10.7,34.8c0.4,3.2,3,5.8,6.2,6.2c1.6,0.2,6.9-1.4,34.8-10.7l32.9-10.9l78.3-78.3c43.1-43,79-79.3,79.9-80.5c4.6-6.9,5.1-15.2,1.6-22.8c-1.2-2.6-3-4.6-13.8-15.5c-8-8.1-13.3-13.1-15-14.1C210.1,10.2,203.3,9.2,197.8,10.6z M206.6,25.6c2.5,1.2,23,21.8,24,24.1c0.9,2.2,0.9,4.1,0,6.3c-0.5,1.1-4.4,5.4-11.2,12.2l-10.5,10.5l-15.8-15.8l-15.8-15.8l10.3-10.3c6-6,11-10.7,12.1-11.2C202,24.5,204.2,24.5,206.6,25.6z M182.7,73.6l15.7,15.7l-61,61l-61,61L53,219.1c-12.8,4.2-23.4,7.7-23.6,7.5c-0.1-0.1,3.2-10.7,7.5-23.5l7.7-23.2l61-61c33.5-33.5,61-61,61.2-61C166.9,57.9,174,65,182.7,73.6z"/></g></g></g>
</svg>